<?xml version="1.0" encoding="utf-8"?>
<svg viewBox="0 0 256 256" style="enable-background:new 0 0 512 512" xmlns="http://www.w3.org/2000/svg">
  <path d="M 111.894 202.027 C 136.322 202.027 156.193 182.267 156.193 157.981 C 156.193 155.69 153.715 154.259 151.73 155.405 C 150.811 155.937 150.243 156.919 150.243 157.981 C 148.142 208.519 75.639 208.504 73.545 157.981 C 73.545 146.571 78.629 135.861 87.495 128.587 C 90.497 126.126 86.733 121.524 83.719 123.987 C 51.814 150.109 70.662 202.025 111.894 202.025 L 111.894 202.027 Z M 164.94 142.638 C 163.339 143.013 162.349 144.611 162.72 146.211 C 163.616 150.046 164.071 154.006 164.071 157.981 C 161.209 226.748 62.566 226.724 59.719 157.981 C 59.719 155.69 57.241 154.259 55.257 155.405 C 54.337 155.937 53.769 156.919 53.769 157.981 C 56.961 234.65 166.847 234.611 170.021 157.981 C 170.021 153.548 169.516 149.136 168.516 144.858 C 168.141 143.257 166.541 142.263 164.94 142.638 Z" data-original="url(#a)" class="" style="fill: rgb(255, 255, 255); fill-opacity: 0.4;"/>
  <path d="M 192.323 108.889 C 192.323 116.951 190.3 125.46 186.194 134.058 C 184.201 138.223 179.292 140.157 174.978 138.551 C 170.411 136.789 168.117 131.681 169.831 127.096 C 173.788 116.624 177.775 97.256 160.013 85.445 C 151.058 79.495 145.584 75.627 142.222 73.039 L 142.222 157.175 C 142.686 168.081 136.888 178.319 127.376 183.058 C 105.238 194.95 78.397 176.296 83.374 151.314 C 85.576 140.038 94.62 130.815 105.896 128.346 C 111.995 127.037 118.183 127.572 123.776 129.863 L 123.776 52.748 C 123.776 47.036 128.447 42.395 134.189 42.395 C 138.503 42.395 142.371 44.983 143.829 48.821 C 145.019 51.975 149.184 58.342 163.792 65.779 C 182.356 75.24 192.323 90.949 192.323 108.889 Z" data-original="url(#a)" class="" style="fill: rgb(255, 255, 255);"/>
</svg>